<svg version="1.1" id="Layer_1" xmlns="http://www.w3.org/2000/svg" xmlns:xlink="http://www.w3.org/1999/xlink" x="0px" y="0px"
	 width="100%" viewBox="0 0 557 147" enable-background="new 0 0 557 147" xml:space="preserve">
<path fill="#FEFEFD" opacity="1.000000" stroke="none" 
	d="
M371.000000,148.000000 
	C247.333374,148.000000 124.166756,148.000000 1.000099,148.000000 
	C1.000066,99.000061 1.000066,50.000122 1.000033,1.000139 
	C186.666550,1.000092 372.333099,1.000092 557.999756,1.000046 
	C557.999817,49.999851 557.999817,98.999702 557.999878,147.999786 
	C495.833344,148.000000 433.666656,148.000000 371.000000,148.000000 
M188.367523,80.076759 
	C188.251801,80.395645 188.136078,80.714523 187.571259,81.320312 
	C187.325195,81.786652 187.079147,82.252998 186.232056,82.936295 
	C185.874283,83.651299 185.516510,84.366302 184.923080,85.343933 
	C184.923080,85.343933 184.803070,85.675758 184.202438,85.904221 
	C183.846283,86.625847 183.490128,87.347466 182.911377,88.343048 
	C182.911377,88.343048 182.802063,88.678680 182.203232,88.908768 
	C181.850037,89.631104 181.496841,90.353439 180.922684,91.353699 
	C180.922684,91.353699 180.822784,91.694420 180.328796,91.967072 
	C180.203979,92.309723 180.079163,92.652374 179.512939,93.304382 
	C179.302292,93.793190 179.091660,94.281990 178.381546,95.020683 
	C178.278732,95.362076 178.175903,95.703461 177.870575,96.321312 
	C177.870575,96.321312 177.797195,96.656075 177.294617,96.924133 
	C177.174683,97.270958 177.054764,97.617790 177.003922,97.987267 
	C177.003922,97.987267 176.945282,97.943474 176.398438,98.217522 
	C176.210144,98.779251 176.021835,99.340973 175.861237,99.968086 
	C175.861237,99.968086 175.903397,99.910942 175.393600,100.048424 
	C175.252045,100.361214 175.110474,100.673996 174.450653,101.414589 
	C169.044418,112.621368 163.582932,123.802399 158.327576,135.079498 
	C157.863129,136.076111 158.744186,137.699753 159.160934,139.370590 
	C159.450897,139.284180 159.740860,139.197754 160.870346,139.049530 
	C162.823853,138.969955 164.777344,138.890381 167.623245,138.922684 
	C168.816742,138.893600 170.010254,138.864502 172.082932,138.899445 
	C175.042374,138.967834 178.001801,139.036209 181.439545,139.588318 
	C183.044800,138.780960 184.650070,137.973602 186.574417,137.005753 
	C186.928741,137.297455 187.942383,138.131927 189.017166,138.951141 
	C189.017166,138.951141 189.047272,139.006500 189.156754,139.365463 
	C189.441040,139.288681 189.725327,139.211899 190.938095,139.043701 
	C195.960617,139.086990 200.983124,139.130280 206.489395,139.653976 
	C210.533157,140.490906 210.127853,136.908646 210.746399,134.933350 
	C213.647720,125.668167 216.252350,116.310066 219.672150,106.993790 
	C220.381393,106.997795 221.090637,107.001801 221.890198,107.795303 
	C221.102280,111.687424 220.314362,115.579536 219.452774,119.835602 
	C227.370865,119.835602 234.840134,119.936066 242.304550,119.789337 
	C245.586029,119.724831 247.154678,120.777870 247.384903,124.261505 
	C247.698151,129.001587 248.501816,133.709259 249.086594,138.362518 
	C261.565308,138.362518 273.486633,138.362518 285.777832,138.362518 
	C283.318604,121.101807 280.885651,104.170547 278.498108,87.232880 
	C275.293213,64.496780 272.123505,41.755722 269.007233,18.302197 
	C269.089081,17.359106 269.384552,16.368170 269.187317,15.487592 
	C269.020233,14.741624 268.283325,14.123286 267.798584,13.448472 
	C267.186707,13.927891 266.574829,14.407310 265.224060,14.963973 
	C261.691193,16.892750 258.158325,18.821526 254.303238,20.826418 
	C254.303238,20.826418 254.035812,21.021576 253.321671,21.037771 
	C249.153564,23.626562 244.985443,26.215355 240.353455,28.970831 
	C240.051102,29.126207 239.817215,29.352390 239.109985,29.791433 
	C238.681335,30.133133 238.252670,30.474833 237.366318,30.988443 
	C237.073135,31.154547 236.849731,31.387560 236.155304,31.833733 
	C235.762360,32.203884 235.369431,32.574039 234.483337,33.086040 
	C234.278748,33.349010 234.074158,33.611980 233.197128,34.006554 
	C228.773560,37.992722 224.349976,41.978889 219.499786,46.206665 
	C219.215637,46.419773 219.075027,46.703934 219.058472,47.055840 
	C219.058472,47.055840 219.069382,47.084522 218.353241,47.063320 
	C213.594376,51.736786 208.835526,56.410255 203.677490,61.616177 
	C201.482697,64.098434 199.287903,66.580688 197.008636,69.018799 
	C197.008636,69.018799 197.061920,69.097809 196.514893,69.317345 
	C196.272095,69.834793 196.029282,70.352249 195.884369,70.924210 
	C195.884369,70.924210 195.852982,70.816658 195.344254,70.988899 
	C195.184372,71.297653 195.024475,71.606400 194.962173,71.965424 
	C194.962173,71.965424 194.907532,71.870224 194.413834,72.064919 
	C194.258621,72.371681 194.103394,72.678452 193.495819,73.230072 
	C193.259369,73.677856 193.022934,74.125648 192.199600,74.839729 
	C191.773804,75.542336 191.347992,76.244942 190.987091,77.005135 
	C190.987091,77.005135 190.942123,76.931259 190.411652,77.207901 
	C190.184036,77.743431 189.956406,78.278961 189.844559,78.932236 
	C189.844559,78.932236 189.787247,78.777382 189.288956,78.962425 
	C189.139908,79.274048 188.990875,79.585670 188.982544,79.893379 
	C188.982544,79.893379 188.846756,79.856201 188.367523,80.076759 
M28.887426,78.333214 
	C24.093519,98.286919 19.299614,118.240616 14.399426,138.636703 
	C23.909296,138.636703 32.559536,138.636520 41.209778,138.636765 
	C48.509407,138.636978 48.472450,138.628906 50.045719,131.622116 
	C53.682198,115.426544 57.358089,99.239822 61.350739,81.577553 
	C67.804604,98.463860 73.744400,114.005119 80.190933,130.872238 
	C94.931580,113.932007 108.636879,98.181610 122.342186,82.431213 
	C122.591759,82.561905 122.841339,82.692589 123.090919,82.823273 
	C118.934532,101.224297 114.778145,119.625313 110.484268,138.635025 
	C120.564789,138.635025 130.018372,138.394043 139.449661,138.747681 
	C143.508484,138.899872 144.751465,137.383209 145.609436,133.715622 
	C151.975388,106.502602 158.558167,79.340286 165.074860,52.162529 
	C167.772156,40.913452 170.474365,29.665554 173.254120,18.084757 
	C163.679565,18.084757 154.690170,17.819761 145.734360,18.251331 
	C143.153519,18.375696 139.932678,19.871212 138.257080,21.816412 
	C124.562553,37.714508 111.167564,53.870564 97.672066,69.940262 
	C96.232422,71.654495 94.732147,73.317818 92.874580,75.446411 
	C85.687065,55.955231 78.744255,37.127640 71.812630,18.330366 
	C62.221222,18.330366 52.923904,18.330366 43.293888,18.330366 
	C38.526958,38.115540 33.781029,57.813560 28.887426,78.333214 
M384.084869,50.468594 
	C385.879425,51.934875 387.673981,53.401161 389.602264,54.976715 
	C396.813599,49.217865 403.953613,43.515984 411.612457,37.399780 
	C407.398804,33.965000 403.756226,30.525993 399.667999,27.741190 
	C376.938538,12.258457 344.390961,14.333200 326.184692,32.259922 
	C310.258636,47.941452 312.066162,70.815315 330.445557,83.452843 
	C335.219910,86.735649 340.554108,89.201973 345.617676,92.067093 
	C350.826477,95.014404 356.229370,97.681198 361.162354,101.036728 
	C366.699371,104.803131 366.498260,111.295227 360.866791,115.004356 
	C358.582489,116.508904 355.761719,117.560966 353.052765,117.996704 
	C340.637848,119.993729 330.114929,115.916298 321.180054,107.335754 
	C319.781555,105.992722 318.530243,104.496468 317.150482,103.005814 
	C308.877167,108.590042 300.941040,113.946724 292.807983,119.436295 
	C309.658051,139.621597 331.059296,146.563980 356.060791,143.476318 
	C370.160675,141.734985 382.900543,136.668350 392.061981,125.139534 
	C405.199005,108.607773 401.155670,86.584213 383.127350,75.760292 
	C379.994354,73.879288 376.681732,72.299217 373.470367,70.546661 
	C366.900574,66.961281 360.168091,63.633308 353.832001,59.672386 
	C347.965851,56.005234 348.236267,49.750706 354.109924,46.073414 
	C355.760986,45.039738 357.719055,44.331108 359.632385,43.909836 
	C368.580017,41.939789 376.365814,44.761723 384.084869,50.468594 
M455.262512,138.780960 
	C461.137238,140.055695 462.872955,136.868683 464.054321,131.700073 
	C469.911652,106.074059 476.195190,80.545685 482.119995,54.934662 
	C483.150879,50.478523 484.888397,48.493698 489.802338,48.805592 
	C497.103333,49.269005 504.460419,49.066967 511.782440,48.818455 
	C513.493408,48.760384 516.250732,47.758125 516.672424,46.545483 
	C519.877808,37.328487 522.622253,27.951237 525.654358,18.158789 
	C492.008911,18.158789 459.049500,18.137426 426.090637,18.258101 
	C425.062439,18.261862 423.385681,19.557051 423.116089,20.550127 
	C420.593292,29.842386 418.312042,39.200233 415.853607,48.965508 
	C426.869659,48.965508 437.490387,48.965508 448.661224,48.965508 
	C441.553070,79.067871 434.552338,108.715454 427.453003,138.780472 
	C437.015503,138.780472 445.666473,138.780472 455.262512,138.780960 
z"/>
<path fill="#252222" opacity="1.000000" stroke="none" 
	d="
M28.961264,77.922394 
	C33.781029,57.813560 38.526958,38.115540 43.293888,18.330366 
	C52.923904,18.330366 62.221222,18.330366 71.812630,18.330366 
	C78.744255,37.127640 85.687065,55.955231 92.874580,75.446411 
	C94.732147,73.317818 96.232422,71.654495 97.672066,69.940262 
	C111.167564,53.870564 124.562553,37.714508 138.257080,21.816412 
	C139.932678,19.871212 143.153519,18.375696 145.734360,18.251331 
	C154.690170,17.819761 163.679565,18.084757 173.254120,18.084757 
	C170.474365,29.665554 167.772156,40.913452 165.074860,52.162529 
	C158.558167,79.340286 151.975388,106.502602 145.609436,133.715622 
	C144.751465,137.383209 143.508484,138.899872 139.449661,138.747681 
	C130.018372,138.394043 120.564789,138.635025 110.484268,138.635025 
	C114.778145,119.625313 118.934532,101.224297 123.090919,82.823273 
	C122.841339,82.692589 122.591759,82.561905 122.342186,82.431213 
	C108.636879,98.181610 94.931580,113.932007 80.190933,130.872238 
	C73.744400,114.005119 67.804604,98.463860 61.350739,81.577553 
	C57.358089,99.239822 53.682198,115.426544 50.045719,131.622116 
	C48.472450,138.628906 48.509407,138.636978 41.209778,138.636765 
	C32.559536,138.636520 23.909296,138.636703 14.399426,138.636703 
	C19.299614,118.240616 24.093519,98.286919 28.961264,77.922394 
z"/>
<path fill="#252122" opacity="1.000000" stroke="none" 
	d="
M383.791565,50.243408 
	C376.365814,44.761723 368.580017,41.939789 359.632385,43.909836 
	C357.719055,44.331108 355.760986,45.039738 354.109924,46.073414 
	C348.236267,49.750706 347.965851,56.005234 353.832001,59.672386 
	C360.168091,63.633308 366.900574,66.961281 373.470367,70.546661 
	C376.681732,72.299217 379.994354,73.879288 383.127350,75.760292 
	C401.155670,86.584213 405.199005,108.607773 392.061981,125.139534 
	C382.900543,136.668350 370.160675,141.734985 356.060791,143.476318 
	C331.059296,146.563980 309.658051,139.621597 292.807983,119.436295 
	C300.941040,113.946724 308.877167,108.590042 317.150482,103.005814 
	C318.530243,104.496468 319.781555,105.992722 321.180054,107.335754 
	C330.114929,115.916298 340.637848,119.993729 353.052765,117.996704 
	C355.761719,117.560966 358.582489,116.508904 360.866791,115.004356 
	C366.498260,111.295227 366.699371,104.803131 361.162354,101.036728 
	C356.229370,97.681198 350.826477,95.014404 345.617676,92.067093 
	C340.554108,89.201973 335.219910,86.735649 330.445557,83.452843 
	C312.066162,70.815315 310.258636,47.941452 326.184692,32.259922 
	C344.390961,14.333200 376.938538,12.258457 399.667999,27.741190 
	C403.756226,30.525993 407.398804,33.965000 411.612457,37.399780 
	C403.953613,43.515984 396.813599,49.217865 389.602264,54.976715 
	C387.673981,53.401161 385.879425,51.934875 383.791565,50.243408 
z"/>
<path fill="#262223" opacity="1.000000" stroke="none" 
	d="
M454.789978,138.780716 
	C445.666473,138.780472 437.015503,138.780472 427.453003,138.780472 
	C434.552338,108.715454 441.553070,79.067871 448.661224,48.965508 
	C437.490387,48.965508 426.869659,48.965508 415.853607,48.965508 
	C418.312042,39.200233 420.593292,29.842386 423.116089,20.550127 
	C423.385681,19.557051 425.062439,18.261862 426.090637,18.258101 
	C459.049500,18.137426 492.008911,18.158789 525.654358,18.158789 
	C522.622253,27.951237 519.877808,37.328487 516.672424,46.545483 
	C516.250732,47.758125 513.493408,48.760384 511.782440,48.818455 
	C504.460419,49.066967 497.103333,49.269005 489.802338,48.805592 
	C484.888397,48.493698 483.150879,50.478523 482.119995,54.934662 
	C476.195190,80.545685 469.911652,106.074059 464.054321,131.700073 
	C462.872955,136.868683 461.137238,140.055695 454.789978,138.780716 
z"/>
<path fill="#262223" opacity="1.000000" stroke="none" 
	d="
M268.938721,19.016792 
	C272.123505,41.755722 275.293213,64.496780 278.498108,87.232880 
	C280.885651,104.170547 283.318604,121.101807 285.777832,138.362518 
	C273.486633,138.362518 261.565308,138.362518 249.086594,138.362518 
	C248.501816,133.709259 247.698151,129.001587 247.384903,124.261505 
	C247.154678,120.777870 245.586029,119.724831 242.304550,119.789337 
	C234.840134,119.936066 227.370865,119.835602 219.452774,119.835602 
	C220.314362,115.579536 221.102280,111.687424 222.013214,107.050888 
	C223.439804,101.549187 224.743378,96.791893 226.141144,91.690857 
	C232.384338,91.690857 238.291122,91.690857 244.481476,91.690857 
	C244.095215,86.740067 243.667252,82.280128 243.416107,77.810249 
	C242.969986,69.870003 242.631073,61.923744 242.511871,53.805565 
	C243.236755,52.451565 243.697113,51.271996 244.478394,49.959801 
	C251.586319,40.470177 258.331604,31.082287 265.211853,21.794378 
	C266.094879,20.602381 267.679260,19.929926 268.938721,19.016792 
z"/>
<path fill="#F8B124" opacity="1.000000" stroke="none" 
	d="
M254.035812,21.021576 
	C254.035812,21.021576 254.303238,20.826418 254.857651,20.851578 
	C257.941956,20.582378 260.471832,20.288017 262.842957,20.287334 
	C256.073822,29.978691 249.463409,39.376373 242.579712,48.983372 
	C237.843079,58.121582 233.379715,67.050476 228.828400,76.132095 
	C228.740417,76.284813 228.699692,76.634956 228.429733,76.861572 
	C226.406738,81.377220 224.653702,85.666245 222.668396,90.220001 
	C217.932999,104.888908 213.471085,119.306259 208.877975,133.681686 
	C208.258560,135.620331 206.979340,137.348129 206.005646,139.173553 
	C200.983124,139.130280 195.960617,139.086990 190.242752,138.986298 
	C189.380707,138.954758 189.213989,138.980637 189.047272,139.006500 
	C189.047272,139.006500 189.017166,138.951141 188.962646,138.533752 
	C189.141235,136.312897 189.063019,134.399185 189.656509,132.723358 
	C194.613251,118.726913 199.721024,104.784004 204.699387,90.795097 
	C205.275497,89.176231 205.339752,87.375206 205.962311,85.599045 
	C207.255142,83.778412 208.226974,82.017372 209.489441,80.050385 
	C211.751694,75.675514 213.723343,71.506592 215.918976,67.182739 
	C216.289658,66.501015 216.436371,65.974220 216.895370,65.474213 
	C217.899857,64.783638 218.592087,64.066284 219.556213,63.139519 
	C222.913849,58.317646 225.999588,53.705181 229.381104,48.937412 
	C231.169037,46.871742 232.661179,44.961372 234.350555,42.935417 
	C234.791595,42.617107 234.951080,42.361691 235.019501,42.033901 
	C235.012787,42.014217 235.053177,42.024143 235.269226,41.915939 
	C235.753677,41.604214 235.927185,41.338665 236.002930,41.005936 
	C236.000061,41.000778 236.013107,41.008957 236.317169,40.869919 
	C238.753937,37.858105 240.886627,34.985329 243.328659,31.965567 
	C247.103928,28.219576 250.569870,24.620575 254.035812,21.021576 
z"/>
<path fill="#F9F9F6" opacity="1.000000" stroke="none" 
	d="
M228.699692,76.634956 
	C228.699692,76.634956 228.740417,76.284813 229.184387,76.088928 
	C230.160019,75.130600 230.757477,74.405342 231.212952,73.599815 
	C234.906113,67.068375 238.572662,60.521896 242.247314,53.979996 
	C242.631073,61.923744 242.969986,69.870003 243.416107,77.810249 
	C243.667252,82.280128 244.095215,86.740067 244.481476,91.690857 
	C238.291122,91.690857 232.384338,91.690857 226.141144,91.690857 
	C224.743378,96.791893 223.439804,101.549187 221.968048,106.656143 
	C221.090637,107.001801 220.381393,106.997795 219.331085,106.600815 
	C220.657394,100.803421 222.324738,95.399002 224.256851,89.763275 
	C225.914307,85.232964 227.307007,80.933960 228.699692,76.634956 
z"/>
<path fill="#F8B01F" opacity="1.000000" stroke="none" 
	d="
M178.881012,94.770790 
	C179.091660,94.281990 179.302292,93.793190 179.997925,93.032082 
	C180.596207,92.404663 180.709503,92.049545 180.822784,91.694420 
	C180.822784,91.694420 180.922684,91.353699 181.367950,91.151154 
	C182.142838,90.191963 182.472443,89.435326 182.802063,88.678680 
	C182.802063,88.678680 182.911377,88.343048 183.358566,88.144455 
	C184.138199,87.189163 184.470642,86.432465 184.803070,85.675766 
	C184.803070,85.675758 184.923080,85.343933 185.372818,85.150505 
	C186.159409,84.211166 186.496262,83.465256 186.833099,82.719345 
	C187.079147,82.252998 187.325195,81.786652 188.035950,81.216591 
	C188.500626,81.112869 188.985199,81.158890 188.984619,81.578156 
	C189.030563,83.394066 189.077072,84.790703 189.072479,86.391876 
	C189.021393,86.596420 188.875351,86.991966 188.669556,87.118645 
	C188.212311,87.474876 188.071060,87.759216 187.990845,88.376541 
	C187.624680,89.101089 187.307724,89.547447 186.767578,90.110443 
	C186.520782,90.824112 186.497162,91.421143 186.435547,92.452026 
	C186.583603,93.420769 186.769638,93.955666 186.979187,94.493469 
	C187.002686,94.496376 186.968826,94.463158 186.588165,94.385712 
	C184.851685,95.894371 183.495850,97.480461 181.858444,99.199806 
	C181.405777,99.907600 181.234695,100.482155 181.032410,101.029114 
	C181.001221,101.001526 181.074387,101.041283 180.805359,101.190102 
	C180.379196,101.911484 180.222061,102.484055 180.032074,103.030228 
	C179.999207,103.003838 180.073013,103.043663 179.811554,103.176376 
	C179.324265,103.836708 179.098450,104.364326 178.661713,105.102432 
	C178.302673,105.877701 178.154526,106.442497 177.947403,107.250778 
	C177.844559,107.655411 177.800705,107.816559 177.551453,108.174706 
	C177.237396,108.922600 177.128723,109.473511 177.010239,110.011414 
	C177.000427,109.998405 177.030029,110.013107 176.769196,110.156021 
	C176.322601,110.846107 176.136856,111.393288 175.976501,111.963905 
	C176.001892,111.987343 175.934387,111.972702 175.697617,112.147697 
	C175.300598,112.874985 175.140350,113.427284 174.990356,113.989426 
	C175.000610,113.999268 174.975662,113.987556 174.733154,114.155830 
	C174.321594,114.874489 174.152527,115.424873 173.927979,116.226364 
	C173.830582,116.643738 173.788666,116.809982 173.544693,117.176697 
	C173.238632,117.929558 173.134628,118.481956 173.015808,119.016418 
	C173.000961,118.998482 173.042328,119.020325 172.780899,119.168396 
	C172.343094,119.872673 172.166718,120.428879 171.944550,121.221359 
	C171.898758,121.457634 171.784378,121.925186 171.507370,122.132622 
	C169.761902,125.988464 168.059387,129.563828 166.891266,133.305984 
	C165.738968,136.997498 163.809113,137.902054 160.028763,136.216919 
	C161.417343,132.628113 162.534439,129.183228 164.052948,125.925446 
	C167.945282,117.574844 172.016037,109.307388 176.014191,100.730019 
	C175.976440,100.272545 175.939926,100.091743 175.903397,99.910942 
	C175.903397,99.910942 175.861237,99.968086 176.150742,99.830978 
	C176.608597,99.110413 176.776947,98.526939 176.945282,97.943474 
	C176.945282,97.943474 177.003922,97.987267 177.236923,97.858429 
	C177.579010,97.371758 177.688095,97.013916 177.797195,96.656075 
	C177.797195,96.656075 177.870575,96.321312 178.214767,96.053696 
	C178.666321,95.447647 178.773666,95.109215 178.881012,94.770790 
z"/>
<path fill="#FEF7C7" opacity="1.000000" stroke="none" 
	d="
M205.641312,85.658638 
	C205.339752,87.375206 205.275497,89.176231 204.699387,90.795097 
	C199.721024,104.784004 194.613251,118.726913 189.656509,132.723358 
	C189.063019,134.399185 189.141235,136.312897 188.932068,138.541367 
	C187.942383,138.131927 186.928741,137.297455 186.574417,137.005753 
	C184.650070,137.973602 183.044800,138.780960 181.511078,139.164185 
	C182.393845,136.829239 183.205093,134.918427 184.087982,132.742371 
	C184.196960,132.113831 184.234268,131.750534 184.473999,131.204666 
	C184.749908,130.675446 184.823380,130.328812 184.978119,129.714081 
	C185.116058,129.077637 185.172714,128.709259 185.441925,128.173157 
	C185.742081,127.665810 185.829697,127.326195 185.996414,126.717964 
	C186.127472,126.080444 186.179413,125.711540 186.440552,125.171959 
	C186.730698,124.661209 186.811661,124.321136 186.976807,123.717613 
	C187.123276,123.091644 187.185532,122.729118 187.457596,122.193024 
	C187.752243,121.676491 187.837112,121.333527 187.988724,120.778030 
	C188.055466,120.565498 188.092865,120.121529 188.337799,119.934860 
	C188.703156,119.161346 188.823547,118.574509 189.014053,117.787949 
	C189.084167,117.588242 189.122238,117.166626 189.364441,116.971016 
	C189.727203,116.182495 189.847778,115.589584 190.050049,114.739838 
	C190.187881,114.129250 190.244019,113.775513 190.511078,113.238571 
	C190.824753,112.705322 190.927521,112.355278 191.102386,111.838127 
	C191.174500,111.671021 191.202728,111.308128 191.420685,111.150970 
	C191.738037,110.659805 191.837448,110.325790 192.013153,109.798424 
	C192.089462,109.605072 192.142960,109.192802 192.387939,108.996414 
	C192.782043,108.203499 192.931152,107.606987 193.159027,106.854080 
	C193.237793,106.697693 193.270020,106.348969 193.526428,106.142525 
	C194.149963,104.943535 194.517090,103.950981 194.965729,102.763992 
	C195.047241,102.569550 195.110535,102.152641 195.359131,101.964287 
	C195.765335,101.187126 195.922943,100.598328 196.152985,99.852737 
	C196.225449,99.695938 196.234955,99.350609 196.448318,99.181259 
	C196.767151,98.672882 196.872620,98.333847 197.055435,97.832718 
	C197.132782,97.670624 197.187729,97.315651 197.424164,97.253639 
	C197.660583,97.191628 198.125885,97.039192 198.345795,96.858047 
	C198.718765,96.138908 198.871811,95.600922 199.018188,94.791107 
	C198.976212,94.341492 198.940933,94.163696 198.989319,93.808075 
	C199.072983,93.630257 199.146194,93.244102 199.373749,93.105515 
	C199.713943,92.641579 199.826569,92.316223 200.016602,91.810036 
	C200.094025,91.629211 200.151520,91.240028 200.371689,91.097054 
	C200.696091,90.631332 200.800308,90.308594 200.985382,89.807106 
	C201.066223,89.628365 201.137451,89.242531 201.375488,89.199341 
	C201.613510,89.156151 202.080811,89.027618 202.309723,88.854324 
	C202.700882,88.142204 202.863144,87.603386 203.018890,86.792252 
	C202.975006,86.342216 202.937637,86.164513 202.983383,85.811050 
	C203.066483,85.635292 203.144958,85.254478 203.374634,85.210510 
	C203.604309,85.166534 204.047531,85.017258 204.285568,85.010803 
	C204.523605,85.004349 204.999847,84.999847 205.147964,85.176468 
	C205.296082,85.353096 205.641312,85.658638 205.641312,85.658638 
z"/>
<path fill="#ECB94B" opacity="1.000000" stroke="none" 
	d="
M184.016327,133.007629 
	C183.205093,134.918427 182.393845,136.829239 181.271927,138.922302 
	C178.001801,139.036209 175.042374,138.967834 171.609238,138.475693 
	C174.443130,128.063339 177.750717,118.074738 181.310944,107.838959 
	C183.365326,103.215569 185.167068,98.839363 186.968826,94.463158 
	C186.968826,94.463158 187.002686,94.496376 187.322449,94.236099 
	C187.993469,93.201660 188.344696,92.427483 188.697128,91.675598 
	C188.698318,91.697876 188.603958,91.723152 188.953979,91.549103 
	C189.533966,91.252502 189.763947,91.129959 189.979523,91.011841 
	C189.965118,91.016281 189.988739,91.036987 190.027985,91.440964 
	C188.843430,95.000015 187.644455,98.165001 186.391266,101.308365 
	C182.350235,111.444435 178.166229,121.526001 174.303543,131.729355 
	C172.977402,135.232330 174.228073,137.965103 178.506317,136.871811 
	C180.539383,136.352249 182.191589,134.342377 184.016327,133.007629 
z"/>
<path fill="#ECBB51" opacity="1.000000" stroke="none" 
	d="
M176.015442,101.006691 
	C172.016037,109.307388 167.945282,117.574844 164.052948,125.925446 
	C162.534439,129.183228 161.417343,132.628113 160.028763,136.216919 
	C163.809113,137.902054 165.738968,136.997498 166.891266,133.305984 
	C168.059387,129.563828 169.761902,125.988464 171.568054,122.518936 
	C170.180786,128.068817 168.455826,133.439819 166.730850,138.810822 
	C164.777344,138.890381 162.823853,138.969955 160.197021,139.006363 
	C159.349228,138.986191 159.174759,139.009171 159.000305,139.032166 
	C158.744186,137.699753 157.863129,136.076111 158.327576,135.079498 
	C163.582932,123.802399 169.044418,112.621368 174.971619,101.207779 
	C175.666855,101.002876 175.841141,101.004784 176.015442,101.006691 
z"/>
<path fill="#F7F3C8" opacity="1.000000" stroke="none" 
	d="
M242.852997,48.774048 
	C249.463409,39.376373 256.073822,29.978691 263.140411,20.169811 
	C264.385376,18.134649 265.174164,16.510689 265.962952,14.886730 
	C266.574829,14.407310 267.186707,13.927891 267.798584,13.448470 
	C268.283325,14.123286 269.020233,14.741624 269.187317,15.487592 
	C269.384552,16.368170 269.089081,17.359106 268.972961,18.659494 
	C267.679260,19.929926 266.094879,20.602381 265.211853,21.794378 
	C258.331604,31.082287 251.586319,40.470177 244.202484,49.805321 
	C243.354752,49.446995 243.103882,49.110519 242.852997,48.774048 
z"/>
<path fill="#FEF7C7" opacity="1.000000" stroke="none" 
	d="
M223.992096,89.994591 
	C222.324738,95.399002 220.657394,100.803421 218.976486,106.596489 
	C216.252350,116.310066 213.647720,125.668167 210.746399,134.933350 
	C210.127853,136.908646 210.533157,140.490906 206.247528,139.413773 
	C206.979340,137.348129 208.258560,135.620331 208.877975,133.681686 
	C213.471085,119.306259 217.932999,104.888908 222.941223,90.234222 
	C223.628250,89.987335 223.810181,89.990967 223.992096,89.994591 
z"/>
<path fill="#FCEA95" opacity="1.000000" stroke="none" 
	d="
M204.076660,61.083721 
	C208.835526,56.410255 213.594376,51.736786 218.699722,47.390881 
	C219.004547,48.139832 218.962906,48.561218 218.726807,49.105675 
	C218.297867,49.438545 218.123978,49.690243 217.775055,50.076748 
	C217.370941,50.452763 217.202469,50.735859 217.015747,51.012924 
	C216.997498,51.006897 217.028641,51.032635 216.733566,51.153831 
	C215.942139,52.168148 215.445786,53.061272 214.959900,53.972893 
	C214.970352,53.991390 214.963058,53.958714 214.731232,54.055428 
	C214.334503,54.436005 214.169632,54.719868 214.002380,55.001865 
	C214.000000,55.000000 214.003845,55.004700 213.770370,55.093788 
	C213.247650,55.393196 213.090073,55.676716 213.035522,56.029617 
	C213.006866,56.025799 213.052383,56.061832 212.756653,56.182281 
	C211.967880,57.197395 211.474854,58.092068 210.989960,58.993862 
	C210.998108,59.000984 210.989517,58.984272 210.757874,59.080940 
	C210.377640,59.467632 210.229034,59.757652 209.848633,60.210255 
	C209.401093,60.887337 209.185379,61.401840 208.742813,62.031414 
	C208.361145,62.440029 208.206345,62.733578 208.025879,63.021851 
	C208.000214,63.016575 208.041962,63.049362 207.741425,63.162247 
	C206.964767,64.186333 206.488647,65.097534 206.006561,66.004059 
	C206.000610,65.999390 206.006744,66.010880 205.772949,66.097992 
	C205.248093,66.397362 205.099335,66.683601 205.063828,67.043411 
	C205.034790,67.042999 205.071106,67.088333 204.810760,67.226021 
	C204.365891,67.907356 204.181366,68.451004 203.998428,68.997330 
	C204.000000,69.000000 203.993713,68.998322 203.699127,69.125122 
	C202.940292,70.169975 202.476059,71.088028 202.005920,72.002884 
	C202.000000,71.999695 202.006760,72.010254 201.701385,72.146469 
	C200.286835,74.202766 199.177673,76.122841 198.044647,78.031204 
	C198.020798,78.019485 198.031815,78.071480 197.790131,78.060989 
	C197.548447,78.050507 197.070435,78.123581 196.920807,77.873032 
	C196.244614,77.425087 195.718033,77.227692 195.265381,76.714775 
	C196.589798,74.628334 197.840317,72.857422 199.378326,70.901436 
	C201.149094,68.617645 202.785416,66.604851 204.037018,64.376038 
	C204.508698,63.536057 204.089645,62.195877 204.076660,61.083721 
z"/>
<path fill="#FEF8C7" opacity="1.000000" stroke="none" 
	d="
M167.177048,138.866760 
	C168.455826,133.439819 170.180786,128.068817 171.845062,122.311508 
	C171.784378,121.925186 171.898758,121.457634 172.203003,121.073685 
	C172.685608,120.133270 172.863968,119.576797 173.042328,119.020325 
	C173.042328,119.020325 173.000961,118.998482 173.290985,118.873489 
	C173.636276,118.157738 173.691528,117.566978 173.746765,116.976227 
	C173.788666,116.809982 173.830582,116.643738 174.189301,116.077896 
	C174.662628,115.114723 174.819153,114.551140 174.975677,113.987556 
	C174.975662,113.987556 175.000610,113.999268 175.248001,113.834152 
	C175.641724,113.103600 175.788055,112.538155 175.934387,111.972702 
	C175.934387,111.972702 176.001892,111.987343 176.232483,111.818184 
	C176.652054,111.103722 176.841049,110.558411 177.030029,110.013107 
	C177.030029,110.013107 177.000427,109.998405 177.288574,109.874100 
	C177.636765,109.159103 177.696808,108.568413 177.756851,107.977715 
	C177.800705,107.816559 177.844559,107.655411 178.296326,106.980156 
	C178.867157,106.220848 179.030060,105.975639 179.173279,105.845840 
	C179.153595,105.961243 179.410538,105.842422 179.747925,105.997925 
	C180.409637,106.797661 180.733963,107.441902 181.058289,108.086136 
	C177.750717,118.074738 174.443130,128.063339 171.169647,138.443665 
	C170.010254,138.864502 168.816742,138.893600 167.177048,138.866760 
z"/>
<path fill="#F0B63D" opacity="1.000000" stroke="none" 
	d="
M199.090820,71.086502 
	C197.840317,72.857422 196.589798,74.628334 195.177109,77.038216 
	C194.855606,78.322189 194.696289,78.967194 194.243591,79.762665 
	C192.341339,82.004532 190.732468,84.095932 189.123581,86.187340 
	C189.077072,84.790703 189.030563,83.394066 188.973206,81.249138 
	C188.923828,80.285973 188.885284,80.071091 188.846756,79.856201 
	C188.846756,79.856201 188.982544,79.893379 189.173843,79.814171 
	C189.505844,79.415771 189.646545,79.096573 189.787247,78.777382 
	C189.787247,78.777382 189.844559,78.932236 190.097519,78.792419 
	C190.547699,78.078827 190.744919,77.505043 190.942139,76.931259 
	C190.942123,76.931259 190.987091,77.005135 191.314240,76.942429 
	C192.023087,76.110954 192.404800,75.342201 192.786499,74.573441 
	C193.022934,74.125648 193.259369,73.677856 193.967239,73.007912 
	C194.594955,72.480576 194.751236,72.175400 194.907532,71.870224 
	C194.907532,71.870224 194.962173,71.965424 195.171921,71.857101 
	C195.538773,71.438065 195.695877,71.127357 195.852982,70.816658 
	C195.852982,70.816658 195.884369,70.924210 196.127472,70.811119 
	C196.601044,70.164627 196.831482,69.631218 197.061920,69.097809 
	C197.061920,69.097809 197.008636,69.018799 197.369049,69.082748 
	C198.183258,69.793304 198.637039,70.439903 199.090820,71.086502 
z"/>
<path fill="#ECB94B" opacity="1.000000" stroke="none" 
	d="
M218.921249,48.982605 
	C218.962906,48.561218 219.004547,48.139832 219.057800,47.401482 
	C219.069382,47.084522 219.058472,47.055840 219.303772,46.961128 
	C219.674850,46.565968 219.800629,46.265514 219.926407,45.965057 
	C224.349976,41.978889 228.773560,37.992722 233.628769,34.025848 
	C234.060410,34.045147 234.255569,34.210381 234.137726,34.526558 
	C230.510361,38.229008 227.021027,41.636547 223.481689,44.991325 
	C222.016693,46.379944 220.444611,47.655582 218.921249,48.982605 
z"/>
<path fill="#EBC362" opacity="1.000000" stroke="none" 
	d="
M253.678741,21.029673 
	C250.569870,24.620575 247.103928,28.219576 243.317169,31.604706 
	C242.356400,30.630550 241.716461,29.870266 241.012756,29.032658 
	C240.948975,28.955336 240.817337,28.804146 240.817337,28.804146 
	C244.985443,26.215355 249.153564,23.626562 253.678741,21.029673 
z"/>
<path fill="#EBC362" opacity="1.000000" stroke="none" 
	d="
M265.593506,14.925352 
	C265.174164,16.510689 264.385376,18.134649 263.299133,19.876133 
	C260.471832,20.288017 257.941956,20.582378 255.018768,20.813520 
	C258.158325,18.821526 261.691193,16.892750 265.593506,14.925352 
z"/>
<path fill="#E7BD5E" opacity="1.000000" stroke="none" 
	d="
M199.378326,70.901436 
	C198.637039,70.439903 198.183258,69.793304 197.411285,69.104820 
	C199.287903,66.580688 201.482697,64.098434 203.877075,61.349949 
	C204.089645,62.195877 204.508698,63.536057 204.037018,64.376038 
	C202.785416,66.604851 201.149094,68.617645 199.378326,70.901436 
z"/>
<path fill="#E7BD5E" opacity="1.000000" stroke="none" 
	d="
M184.502762,85.789993 
	C184.470642,86.432465 184.138199,87.189163 183.469864,88.007477 
	C183.490128,87.347466 183.846283,86.625847 184.502762,85.789993 
z"/>
<path fill="#E7BD5E" opacity="1.000000" stroke="none" 
	d="
M182.502655,88.793724 
	C182.472443,89.435326 182.142838,90.191963 181.478424,91.012192 
	C181.496841,90.353439 181.850037,89.631104 182.502655,88.793724 
z"/>
<path fill="#E7BD5E" opacity="1.000000" stroke="none" 
	d="
M192.493042,74.706589 
	C192.404800,75.342201 192.023087,76.110954 191.281784,76.913635 
	C191.347992,76.244942 191.773804,75.542336 192.493042,74.706589 
z"/>
<path fill="#E7BD5E" opacity="1.000000" stroke="none" 
	d="
M186.532578,82.827820 
	C186.496262,83.465256 186.159409,84.211166 185.490646,85.019196 
	C185.516510,84.366302 185.874283,83.651299 186.532578,82.827820 
z"/>
<path fill="#E7BD5E" opacity="1.000000" stroke="none" 
	d="
M190.676895,77.069580 
	C190.744919,77.505043 190.547699,78.078827 190.039627,78.733551 
	C189.956406,78.278961 190.184036,77.743431 190.676895,77.069580 
z"/>
<path fill="#EBC362" opacity="1.000000" stroke="none" 
	d="
M237.824020,30.816532 
	C238.252670,30.474833 238.681335,30.133133 239.473221,29.813328 
	C239.836456,29.835222 240.019867,30.022270 239.850037,30.257534 
	C239.146729,30.696527 238.613235,30.900259 238.016571,31.031462 
	C237.953384,30.958933 237.824020,30.816532 237.824020,30.816532 
z"/>
<path fill="#E7BD5E" opacity="1.000000" stroke="none" 
	d="
M176.671860,98.080498 
	C176.776947,98.526939 176.608597,99.110413 176.136887,99.798286 
	C176.021835,99.340973 176.210144,98.779251 176.671860,98.080498 
z"/>
<path fill="#EBC362" opacity="1.000000" stroke="none" 
	d="
M234.976486,32.944191 
	C235.369431,32.574039 235.762360,32.203884 236.510712,31.846874 
	C236.866119,31.860018 237.038330,32.030346 237.019485,32.268494 
	C237.000641,32.506641 236.990326,32.984322 236.668747,33.033974 
	C235.930191,33.205608 235.513229,33.327595 235.060394,33.324638 
	C235.024536,33.199692 234.976486,32.944195 234.976486,32.944191 
z"/>
<path fill="#E7BD5E" opacity="1.000000" stroke="none" 
	d="
M196.788406,69.207581 
	C196.831482,69.631218 196.601044,70.164627 196.078537,70.783859 
	C196.029282,70.352249 196.272095,69.834793 196.788406,69.207581 
z"/>
<path fill="#E7BD5E" opacity="1.000000" stroke="none" 
	d="
M176.014191,100.730019 
	C175.841141,101.004784 175.666855,101.002876 175.230743,100.993881 
	C175.110474,100.673996 175.252045,100.361214 175.648499,99.979683 
	C175.939926,100.091743 175.976440,100.272545 176.014191,100.730019 
z"/>
<path fill="#E7BD5E" opacity="1.000000" stroke="none" 
	d="
M177.545898,96.790100 
	C177.688095,97.013916 177.579010,97.371758 177.202393,97.847107 
	C177.054764,97.617790 177.174683,97.270958 177.545898,96.790100 
z"/>
<path fill="#EBC362" opacity="1.000000" stroke="none" 
	d="
M239.744141,29.742298 
	C239.817215,29.352390 240.051102,29.126207 240.585388,28.887489 
	C240.817337,28.804146 240.948975,28.955336 240.872528,29.222944 
	C240.582611,29.733850 240.323868,29.911091 240.019867,30.022270 
	C240.019867,30.022270 239.836456,29.835222 239.744141,29.742298 
z"/>
<path fill="#FEF8C7" opacity="1.000000" stroke="none" 
	d="
M159.080627,139.201385 
	C159.174759,139.009171 159.349228,138.986191 159.777252,139.037262 
	C159.740860,139.197754 159.450897,139.284180 159.080627,139.201385 
z"/>
<path fill="#FEF7C7" opacity="1.000000" stroke="none" 
	d="
M189.102020,139.185974 
	C189.213989,138.980637 189.380707,138.954758 189.778503,139.032013 
	C189.725327,139.211899 189.441040,139.288681 189.102020,139.185974 
z"/>
<path fill="#ECB94B" opacity="1.000000" stroke="none" 
	d="
M233.964996,33.960049 
	C234.074158,33.611980 234.278748,33.349010 234.729919,33.015118 
	C234.976486,32.944195 235.024536,33.199692 234.932098,33.460114 
	C234.654190,33.894798 234.459488,34.058079 234.255569,34.210381 
	C234.255569,34.210381 234.060410,34.045147 233.964996,33.960049 
z"/>
<path fill="#EBC362" opacity="1.000000" stroke="none" 
	d="
M236.781128,31.773750 
	C236.849731,31.387560 237.073135,31.154547 237.595169,30.902489 
	C237.824020,30.816532 237.953384,30.958933 237.878448,31.222820 
	C237.591919,31.729086 237.336853,31.910299 237.038330,32.030346 
	C237.038330,32.030346 236.866119,31.860018 236.781128,31.773750 
z"/>
<path fill="#E7BD5E" opacity="1.000000" stroke="none" 
	d="
M195.598618,70.902779 
	C195.695877,71.127357 195.538773,71.438065 195.123138,71.831963 
	C195.024475,71.606400 195.184372,71.297653 195.598618,70.902779 
z"/>
<path fill="#E7BD5E" opacity="1.000000" stroke="none" 
	d="
M194.660675,71.967575 
	C194.751236,72.175400 194.594955,72.480576 194.193420,72.885483 
	C194.103394,72.678452 194.258621,72.371681 194.660675,71.967575 
z"/>
<path fill="#E7BD5E" opacity="1.000000" stroke="none" 
	d="
M189.538101,78.869904 
	C189.646545,79.096573 189.505844,79.415771 189.103485,79.816132 
	C188.990875,79.585670 189.139908,79.274048 189.538101,78.869904 
z"/>
<path fill="#E7BD5E" opacity="1.000000" stroke="none" 
	d="
M188.607147,79.966476 
	C188.885284,80.071091 188.923828,80.285973 188.973785,80.829865 
	C188.985199,81.158890 188.500626,81.112869 188.260498,81.073135 
	C188.136078,80.714523 188.251801,80.395645 188.607147,79.966476 
z"/>
<path fill="#E7BD5E" opacity="1.000000" stroke="none" 
	d="
M180.575806,91.830750 
	C180.709503,92.049545 180.596207,92.404663 180.218628,92.877403 
	C180.079163,92.652374 180.203979,92.309723 180.575806,91.830750 
z"/>
<path fill="#E7BD5E" opacity="1.000000" stroke="none" 
	d="
M178.631287,94.895737 
	C178.773666,95.109215 178.666321,95.447647 178.316025,95.915466 
	C178.175903,95.703461 178.278732,95.362076 178.631287,94.895737 
z"/>
<path fill="#FCEA95" opacity="1.000000" stroke="none" 
	d="
M219.713104,46.085861 
	C219.800629,46.265514 219.674850,46.565968 219.313507,46.962784 
	C219.075027,46.703934 219.215637,46.419773 219.713104,46.085861 
z"/>
<path fill="#FDF3B3" opacity="1.000000" stroke="none" 
	d="
M242.579712,48.983368 
	C243.103882,49.110519 243.354752,49.446995 243.881546,49.937950 
	C243.697113,51.271996 243.236755,52.451565 242.511871,53.805565 
	C238.572662,60.521896 234.906113,67.068375 231.212952,73.599815 
	C230.757477,74.405342 230.160019,75.130600 229.272354,75.936211 
	C233.379715,67.050476 237.843079,58.121582 242.579712,48.983368 
z"/>
<path fill="#ECB94B" opacity="1.000000" stroke="none" 
	d="
M237.019485,32.268494 
	C237.336853,31.910299 237.591919,31.729086 237.941650,31.295349 
	C238.613235,30.900259 239.146729,30.696527 239.850037,30.257534 
	C240.323868,29.911091 240.582611,29.733850 240.936310,29.300266 
	C241.716461,29.870266 242.356400,30.630550 243.007843,31.751698 
	C240.886627,34.985329 238.753937,37.858105 236.316559,40.491405 
	C236.007645,39.495377 236.003372,38.738819 236.040100,37.618134 
	C236.384186,35.830772 236.687256,34.407547 236.990326,32.984322 
	C236.990326,32.984322 237.000641,32.506641 237.019485,32.268494 
z"/>
<path fill="#FBE995" opacity="1.000000" stroke="none" 
	d="
M229.085327,49.092712 
	C225.999588,53.705181 222.913849,58.317646 219.355103,62.822620 
	C218.489548,62.420483 218.097015,62.125832 217.763702,61.543808 
	C217.906464,60.873352 217.990036,60.490265 218.297882,59.987930 
	C218.682297,59.577137 218.842453,59.285595 219.237427,58.809296 
	C219.993500,57.770645 220.514771,56.916752 221.262436,55.952545 
	C221.648743,55.555321 221.808640,55.268410 222.226181,54.773769 
	C224.012650,52.384472 225.541489,50.202904 227.373306,48.044670 
	C228.145950,48.409580 228.615646,48.751148 229.085327,49.092712 
z"/>
<path fill="#FBE685" opacity="1.000000" stroke="none" 
	d="
M229.381104,48.937416 
	C228.615646,48.751148 228.145950,48.409580 227.482620,47.728565 
	C230.192352,44.253502 233.095718,41.117882 235.999100,37.982262 
	C236.003372,38.738819 236.007645,39.495377 236.012512,40.630444 
	C236.013107,41.008957 236.000061,41.000778 235.774750,41.099686 
	C235.263260,41.401184 235.097839,41.676365 235.053177,42.024143 
	C235.053177,42.024143 235.012787,42.014217 234.799210,42.124004 
	C234.310806,42.437031 234.166702,42.709435 234.153320,43.051003 
	C232.661179,44.961372 231.169037,46.871742 229.381104,48.937416 
z"/>
<path fill="#FDF4B7" opacity="1.000000" stroke="none" 
	d="
M215.694977,67.337662 
	C213.723343,71.506592 211.751694,75.675514 209.314575,79.776146 
	C208.267212,79.477806 207.685333,79.247757 207.066620,78.762756 
	C207.018295,78.336548 207.006775,78.165291 206.997620,77.997009 
	C207.000000,78.000000 206.993484,77.996872 207.213257,77.902664 
	C207.733307,77.595497 207.831314,77.312492 207.794220,76.724411 
	C207.861420,76.489380 208.006378,76.022476 208.238358,75.923721 
	C208.613342,75.534271 208.756348,75.243576 208.936310,74.956573 
	C208.973282,74.960274 208.926620,74.902458 209.187561,74.764664 
	C209.615982,74.077461 209.783447,73.528038 209.976532,72.987328 
	C210.002121,72.996033 209.963928,72.957512 210.230194,72.823448 
	C210.699356,72.146515 210.902267,71.603638 211.064056,71.030838 
	C211.022934,71.000916 211.075027,71.088264 211.305939,70.981979 
	C211.668854,70.574379 211.800873,70.273064 211.967133,69.978165 
	C212.001389,69.984573 211.954010,69.933487 212.243423,69.805603 
	C212.998413,68.775909 213.464005,67.874107 213.964813,66.975304 
	C214.000031,66.978310 213.952911,66.925598 214.179367,66.916611 
	C214.405823,66.907616 214.843613,66.790131 215.038239,66.955322 
	C215.386917,67.192894 215.540939,67.265282 215.694977,67.337662 
z"/>
<path fill="#FDF3B3" opacity="1.000000" stroke="none" 
	d="
M224.256851,89.763275 
	C223.810181,89.990967 223.628250,89.987335 223.173492,89.969490 
	C224.653702,85.666245 226.406738,81.377220 228.429733,76.861572 
	C227.307007,80.933960 225.914307,85.232964 224.256851,89.763275 
z"/>
<path fill="#FEF7C7" opacity="1.000000" stroke="none" 
	d="
M207.103455,79.017715 
	C207.685333,79.247757 208.267212,79.477806 209.023956,79.982094 
	C208.226974,82.017372 207.255142,83.778412 205.962311,85.599045 
	C205.641312,85.658638 205.296082,85.353096 205.132935,84.864418 
	C204.935394,84.170319 204.901031,83.964890 204.905396,83.467300 
	C204.962204,82.783371 204.980255,82.391609 204.999161,81.999924 
	C205.000000,82.000000 204.999191,81.998268 205.259308,81.848389 
	C205.705475,81.145348 205.891510,80.592194 206.037735,80.027328 
	C205.997910,80.015617 206.064423,80.065544 206.292999,79.955780 
	C206.715546,79.569916 206.909500,79.293816 207.103455,79.017715 
z"/>
<path fill="#FCEFA7" opacity="1.000000" stroke="none" 
	d="
M217.704483,61.831184 
	C218.097015,62.125832 218.489548,62.420483 219.083206,63.032028 
	C218.592087,64.066284 217.899857,64.783638 216.702408,65.321495 
	C216.197174,65.141991 215.820038,64.825760 215.863602,64.552841 
	C215.983139,63.918232 216.059113,63.556549 216.356628,63.059372 
	C216.730316,62.619896 216.882477,62.315914 217.201935,61.966171 
	C217.369247,61.920414 217.704483,61.831181 217.704483,61.831184 
z"/>
<path fill="#FCEFA7" opacity="1.000000" stroke="none" 
	d="
M216.390137,65.294708 
	C216.436371,65.974220 216.289658,66.501015 215.918961,67.182739 
	C215.540939,67.265282 215.386917,67.192894 215.083038,66.662689 
	C214.979111,65.810684 215.025040,65.416512 215.257751,64.971336 
	C215.444519,64.920334 215.820038,64.825760 215.820038,64.825760 
	C215.820038,64.825760 216.197174,65.141991 216.390137,65.294708 
z"/>
<path fill="#ECB94B" opacity="1.000000" stroke="none" 
	d="
M234.350555,42.935417 
	C234.166702,42.709435 234.310806,42.437031 234.805908,42.143688 
	C234.951080,42.361691 234.791595,42.617107 234.350555,42.935417 
z"/>
<path fill="#ECB94B" opacity="1.000000" stroke="none" 
	d="
M235.269226,41.915939 
	C235.097839,41.676365 235.263260,41.401184 235.777618,41.104843 
	C235.927185,41.338665 235.753677,41.604214 235.269226,41.915939 
z"/>
<path fill="#FDF4B3" opacity="1.000000" stroke="none" 
	d="
M181.310944,107.838959 
	C180.733963,107.441902 180.409637,106.797661 179.739563,105.826424 
	C179.393784,105.499428 179.249237,105.184402 179.469482,104.863449 
	C179.817490,104.042892 179.945251,103.543282 180.073013,103.043663 
	C180.073013,103.043663 179.999207,103.003838 180.279175,102.862564 
	C180.730881,102.161285 180.902634,101.601280 181.074387,101.041283 
	C181.074387,101.041283 181.001221,101.001526 181.284195,100.867599 
	C181.758133,100.177979 181.949081,99.622269 182.140030,99.066559 
	C183.495850,97.480461 184.851685,95.894371 186.588165,94.385712 
	C185.167068,98.839363 183.365326,103.215569 181.310944,107.838959 
z"/>
<path fill="#FCEEA1" opacity="1.000000" stroke="none" 
	d="
M189.072479,86.391876 
	C190.732468,84.095932 192.341339,82.004532 194.468018,79.960144 
	C195.130966,80.139915 195.276108,80.272667 195.317993,80.718864 
	C195.156433,81.695000 195.098145,82.357681 195.021652,83.008102 
	C195.003448,82.995842 195.016708,83.037590 194.794342,83.128860 
	C194.292908,83.448135 194.194656,83.737549 194.201508,84.302185 
	C194.125824,84.515999 193.992508,84.949600 193.691101,85.101349 
	C192.609787,86.844208 191.829880,88.435326 191.028656,90.013153 
	C191.007309,89.999863 191.020157,90.048447 190.693726,90.204727 
	C190.227783,90.557953 190.088272,90.754883 189.901077,90.934975 
	C189.853409,90.918129 189.993927,91.007408 189.993927,91.007408 
	C189.763947,91.129959 189.533966,91.252502 188.682800,91.591919 
	C187.720337,91.679207 187.379059,91.549622 187.025635,91.063492 
	C187.005905,90.469238 186.998337,90.231522 186.990753,89.993805 
	C187.307724,89.547447 187.624680,89.101089 188.213348,88.264526 
	C188.759277,87.643944 188.889389,87.349823 188.875351,86.991966 
	C188.875351,86.991966 189.021393,86.596420 189.072479,86.391876 
z"/>
<path fill="#ECBB51" opacity="1.000000" stroke="none" 
	d="
M180.805359,101.190102 
	C180.902634,101.601280 180.730881,102.161285 180.312042,102.888954 
	C180.222061,102.484055 180.379196,101.911484 180.805359,101.190102 
z"/>
<path fill="#ECBB51" opacity="1.000000" stroke="none" 
	d="
M177.551453,108.174706 
	C177.696808,108.568413 177.636765,109.159103 177.298370,109.887108 
	C177.128723,109.473511 177.237396,108.922600 177.551453,108.174706 
z"/>
<path fill="#ECBB51" opacity="1.000000" stroke="none" 
	d="
M174.733170,114.155830 
	C174.819153,114.551140 174.662628,115.114723 174.244781,115.826775 
	C174.152527,115.424873 174.321594,114.874489 174.733170,114.155830 
z"/>
<path fill="#ECBB51" opacity="1.000000" stroke="none" 
	d="
M175.697617,112.147697 
	C175.788055,112.538155 175.641724,113.103600 175.237762,113.824310 
	C175.140350,113.427284 175.300598,112.874985 175.697617,112.147697 
z"/>
<path fill="#ECBB51" opacity="1.000000" stroke="none" 
	d="
M179.811554,103.176376 
	C179.945251,103.543282 179.817490,104.042892 179.457886,104.870438 
	C179.226028,105.198380 179.212173,105.239830 179.128708,105.151459 
	C179.045242,105.063095 178.872620,104.891945 178.872620,104.891945 
	C179.098450,104.364326 179.324265,103.836708 179.811554,103.176376 
z"/>
<path fill="#ECBB51" opacity="1.000000" stroke="none" 
	d="
M176.769196,110.156021 
	C176.841049,110.558411 176.652054,111.103722 176.207092,111.794746 
	C176.136856,111.393288 176.322601,110.846107 176.769196,110.156021 
z"/>
<path fill="#F0B63D" opacity="1.000000" stroke="none" 
	d="
M186.767578,90.110443 
	C186.998337,90.231522 187.005905,90.469238 187.018646,91.044815 
	C187.023834,91.382683 187.025635,91.342285 186.883667,91.508041 
	C186.741714,91.673805 186.473541,92.018181 186.473541,92.018181 
	C186.497162,91.421143 186.520782,90.824112 186.767578,90.110443 
z"/>
<path fill="#ECBB51" opacity="1.000000" stroke="none" 
	d="
M179.192963,105.730438 
	C179.030060,105.975639 178.867157,106.220848 178.355316,106.736679 
	C178.154526,106.442497 178.302673,105.877701 178.661713,105.102432 
	C178.872620,104.891945 179.045242,105.063095 179.117523,105.235779 
	C179.189819,105.408470 179.192963,105.730438 179.192963,105.730438 
z"/>
<path fill="#ECBB51" opacity="1.000000" stroke="none" 
	d="
M181.858444,99.199806 
	C181.949081,99.622269 181.758133,100.177979 181.315384,100.895195 
	C181.234695,100.482155 181.405777,99.907600 181.858444,99.199806 
z"/>
<path fill="#FDF4B3" opacity="1.000000" stroke="none" 
	d="
M188.695938,91.653313 
	C188.344696,92.427483 187.993469,93.201660 187.298950,94.233192 
	C186.769638,93.955666 186.583603,93.420769 186.435547,92.452026 
	C186.473541,92.018181 186.741714,91.673805 187.322098,91.475555 
	C188.166962,91.402641 188.431458,91.527977 188.695938,91.653313 
z"/>
<path fill="#ECBB51" opacity="1.000000" stroke="none" 
	d="
M172.780899,119.168396 
	C172.863968,119.576797 172.685608,120.133270 172.248795,120.837418 
	C172.166718,120.428879 172.343094,119.872673 172.780899,119.168396 
z"/>
<path fill="#ECBB51" opacity="1.000000" stroke="none" 
	d="
M173.544693,117.176697 
	C173.691528,117.566978 173.636276,118.157738 173.305832,118.891418 
	C173.134628,118.481956 173.238632,117.929558 173.544693,117.176697 
z"/>
<path fill="#F0B63D" opacity="1.000000" stroke="none" 
	d="
M188.669556,87.118645 
	C188.889389,87.349823 188.759277,87.643944 188.262527,87.986343 
	C188.071060,87.759216 188.212311,87.474876 188.669556,87.118645 
z"/>
<path fill="#FBAF1B" opacity="1.000000" stroke="none" 
	d="
M193.992508,84.949600 
	C193.992508,84.949600 194.125824,84.515999 194.378418,84.170235 
	C194.849152,83.606110 194.977722,83.343819 195.016708,83.037590 
	C195.016708,83.037590 195.003448,82.995842 195.369492,82.950577 
	C196.142563,81.901520 196.549591,80.897736 197.014893,79.686615 
	C197.073166,79.479271 197.222504,79.075249 197.406769,78.951920 
	C197.821014,78.624603 197.967941,78.372231 198.031815,78.071480 
	C198.031815,78.071480 198.020798,78.019485 198.392517,77.985138 
	C199.845062,75.970604 200.925919,73.990433 202.006760,72.010254 
	C202.006760,72.010254 202.000000,71.999695 202.350220,71.955719 
	C203.131531,70.940605 203.562622,69.969460 203.993713,68.998322 
	C203.993713,68.998322 204.000000,69.000000 204.255981,68.855377 
	C204.698349,68.169945 204.884735,67.629143 205.071106,67.088333 
	C205.071106,67.088333 205.034790,67.042999 205.275742,66.930878 
	C205.782516,66.611641 205.945877,66.342346 206.006744,66.010880 
	C206.006744,66.010880 206.000610,65.999390 206.348328,65.957825 
	C207.144684,64.960632 207.593323,64.004997 208.041962,63.049362 
	C208.041962,63.049362 208.000214,63.016575 208.253906,62.909023 
	C208.661636,62.506432 208.815659,62.211388 208.969681,61.916344 
	C209.185379,61.401840 209.401093,60.887337 210.065247,60.096817 
	C210.780182,59.603352 210.938797,59.324512 210.989517,58.984272 
	C210.989517,58.984272 210.998108,59.000984 211.334869,58.954235 
	C212.131882,57.958935 212.592133,57.010384 213.052383,56.061832 
	C213.052383,56.061832 213.006866,56.025799 213.252792,55.920910 
	C213.770706,55.610107 213.939087,55.339668 214.003845,55.004700 
	C214.003845,55.004700 214.000000,55.000000 214.233170,54.902847 
	C214.631912,54.523369 214.797485,54.241039 214.963058,53.958710 
	C214.963058,53.958714 214.970352,53.991390 215.308914,53.942303 
	C216.107864,52.939690 216.568253,51.986160 217.028641,51.032631 
	C217.028641,51.032635 216.997498,51.006897 217.242050,50.908855 
	C217.769547,50.603775 217.944244,50.328114 218.010681,49.983829 
	C218.123978,49.690243 218.297867,49.438545 218.726807,49.105675 
	C220.444611,47.655582 222.016693,46.379944 223.481689,44.991325 
	C227.021027,41.636547 230.510361,38.229008 234.137726,34.526558 
	C234.459488,34.058079 234.654190,33.894798 234.967957,33.585060 
	C235.513229,33.327595 235.930191,33.205608 236.668762,33.033974 
	C236.687256,34.407547 236.384186,35.830772 236.040100,37.618130 
	C233.095718,41.117882 230.192352,44.253502 227.179657,47.705223 
	C225.541489,50.202904 224.012650,52.384472 222.003693,54.888397 
	C221.361069,55.494785 221.198563,55.778820 221.036041,56.062855 
	C220.514771,56.916752 219.993500,57.770645 219.008698,58.924484 
	C218.387985,59.518673 218.230789,59.812923 218.073578,60.107178 
	C217.990036,60.490265 217.906464,60.873352 217.763702,61.543808 
	C217.704483,61.831181 217.369247,61.920414 216.961517,62.082714 
	C216.414230,62.561634 216.274673,62.878250 216.135101,63.194866 
	C216.059113,63.556549 215.983139,63.918232 215.863602,64.552841 
	C215.820038,64.825760 215.444519,64.920334 214.994843,65.111145 
	C214.347763,65.843163 214.150330,66.384384 213.952911,66.925598 
	C213.952911,66.925598 214.000031,66.978310 213.682755,67.116417 
	C212.894989,68.147507 212.424500,69.040497 211.954010,69.933487 
	C211.954010,69.933487 212.001389,69.984573 211.749176,70.097992 
	C211.224640,70.440292 211.084000,70.732574 211.075027,71.088264 
	C211.075027,71.088264 211.022934,71.000916 210.790894,71.157486 
	C210.360535,71.861870 210.162231,72.409691 209.963928,72.957512 
	C209.963928,72.957512 210.002121,72.996033 209.739441,73.150620 
	C209.293381,73.837624 209.110001,74.370041 208.926636,74.902458 
	C208.926620,74.902458 208.973282,74.960274 208.729340,75.080231 
	C208.228867,75.417862 208.069199,75.691956 208.006378,76.022476 
	C208.006378,76.022476 207.861420,76.489380 207.619919,76.855766 
	C207.163406,77.437294 207.035095,77.695534 206.993484,77.996872 
	C206.993484,77.996872 207.000000,78.000000 206.745270,78.169769 
	C206.348511,78.914879 206.206467,79.490211 206.064423,80.065544 
	C206.064423,80.065544 205.997910,80.015617 205.766510,80.166550 
	C205.356461,80.877747 205.177826,81.438004 204.999191,81.998268 
	C204.999191,81.998268 205.000000,82.000000 204.747467,82.147095 
	C204.308517,82.829399 204.122086,83.364594 203.952850,83.916634 
	C203.970047,83.933479 203.963547,83.980766 203.728577,84.117996 
	C203.377396,84.588310 203.261185,84.921394 203.144958,85.254478 
	C203.144958,85.254478 203.066483,85.635292 202.763870,85.942291 
	C202.341599,86.560883 202.221939,86.872467 202.059448,87.387726 
	C202.016602,87.591393 201.860428,87.977234 201.647736,88.125702 
	C201.335831,88.596954 201.236633,88.919739 201.137451,89.242531 
	C201.137451,89.242531 201.066223,89.628365 200.764160,89.947243 
	C200.358566,90.590759 200.255035,90.915390 200.151520,91.240028 
	C200.151520,91.240028 200.094025,91.629211 199.789062,91.947159 
	C199.371460,92.591438 199.258835,92.917770 199.146194,93.244102 
	C199.146194,93.244102 199.072983,93.630257 198.768661,93.943008 
	C198.349106,94.572609 198.233887,94.889442 198.082123,95.404709 
	C198.045609,95.603127 197.900650,95.979698 197.678879,96.136276 
	C197.367310,96.633781 197.277512,96.974716 197.187729,97.315651 
	C197.187729,97.315651 197.132782,97.670624 196.817230,97.981949 
	C196.412750,98.645714 196.323853,98.998161 196.234955,99.350609 
	C196.234955,99.350609 196.225449,99.695938 195.876556,100.017960 
	C195.388611,100.944206 195.249573,101.548424 195.110535,102.152641 
	C195.110535,102.152641 195.047241,102.569550 194.614136,102.846542 
	C193.877350,104.198685 193.573685,105.273827 193.270020,106.348969 
	C193.270020,106.348969 193.237793,106.697693 192.880249,107.023193 
	C192.396118,107.963387 192.269531,108.578094 192.142944,109.192802 
	C192.142960,109.192802 192.089462,109.605072 191.784561,109.945755 
	C191.387344,110.626999 191.295044,110.967560 191.202728,111.308128 
	C191.202728,111.308128 191.174500,111.671021 190.853607,111.992371 
	C190.455185,112.683060 190.377670,113.052414 190.300140,113.421768 
	C190.244019,113.775513 190.187881,114.129250 189.795151,114.924286 
	C189.346451,115.965927 189.234344,116.566277 189.122238,117.166626 
	C189.122238,117.166626 189.084167,117.588242 188.764847,117.971222 
	C188.327972,118.943306 188.210419,119.532417 188.092865,120.121529 
	C188.092865,120.121529 188.055466,120.565498 187.762375,120.937866 
	C187.395447,121.662346 187.321625,122.014465 187.247803,122.366585 
	C187.185532,122.729118 187.123276,123.091644 186.757050,123.878738 
	C186.379181,124.649742 186.305267,124.996185 186.231354,125.342628 
	C186.179413,125.711540 186.127472,126.080444 185.771271,126.874687 
	C185.387817,127.646980 185.308609,127.993935 185.229385,128.340897 
	C185.172714,128.709259 185.116058,129.077637 184.756912,129.882690 
	C184.393478,130.675323 184.332535,131.031296 184.271576,131.387253 
	C184.234268,131.750534 184.196960,132.113831 184.087982,132.742371 
	C182.191589,134.342377 180.539383,136.352249 178.506317,136.871811 
	C174.228073,137.965103 172.977402,135.232330 174.303543,131.729355 
	C178.166229,121.526001 182.350235,111.444435 186.391266,101.308365 
	C187.644455,98.165001 188.843430,95.000015 190.033539,91.422821 
	C189.999863,91.000710 190.024689,90.972458 190.259369,90.906792 
	C190.786880,90.654884 190.962250,90.390656 191.020157,90.048447 
	C191.020157,90.048447 191.007309,89.999863 191.374268,89.953491 
	C192.491653,88.254623 193.242081,86.602112 193.992508,84.949600 
z"/>
<path fill="#ECB94B" opacity="1.000000" stroke="none" 
	d="
M193.526428,106.142525 
	C193.573685,105.273827 193.877350,104.198685 194.532623,103.040985 
	C194.517090,103.950981 194.149963,104.943535 193.526428,106.142525 
z"/>
<path fill="#ECB94B" opacity="1.000000" stroke="none" 
	d="
M192.387939,108.996414 
	C192.269531,108.578094 192.396118,107.963387 192.801483,107.179581 
	C192.931152,107.606987 192.782043,108.203499 192.387939,108.996414 
z"/>
<path fill="#FDF4B7" opacity="1.000000" stroke="none" 
	d="
M201.860428,87.977234 
	C201.860428,87.977234 202.016602,87.591393 202.290268,87.359711 
	C202.563934,87.128021 203.025391,87.064568 203.025391,87.064568 
	C202.863144,87.603386 202.700882,88.142204 202.264999,88.589462 
	C201.947723,88.324348 201.904083,88.150795 201.860428,87.977234 
z"/>
<path fill="#ECB94B" opacity="1.000000" stroke="none" 
	d="
M189.364441,116.971016 
	C189.234344,116.566277 189.346451,115.965927 189.713440,115.181122 
	C189.847778,115.589584 189.727203,116.182495 189.364441,116.971016 
z"/>
<path fill="#FDF4B7" opacity="1.000000" stroke="none" 
	d="
M197.900650,95.979698 
	C197.900650,95.979698 198.045609,95.603127 198.308746,95.370560 
	C198.571884,95.138000 199.024872,95.062927 199.024872,95.062927 
	C198.871811,95.600922 198.718765,96.138908 198.297104,96.591446 
	C197.985870,96.330559 197.943253,96.155128 197.900650,95.979698 
z"/>
<path fill="#ECB94B" opacity="1.000000" stroke="none" 
	d="
M195.359131,101.964287 
	C195.249573,101.548424 195.388611,100.944206 195.804108,100.174759 
	C195.922943,100.598328 195.765335,101.187126 195.359131,101.964287 
z"/>
<path fill="#ECB94B" opacity="1.000000" stroke="none" 
	d="
M188.337814,119.934860 
	C188.210419,119.532417 188.327972,118.943306 188.694733,118.170929 
	C188.823547,118.574509 188.703156,119.161346 188.337814,119.934860 
z"/>
<path fill="#ECB94B" opacity="1.000000" stroke="none" 
	d="
M196.448318,99.181259 
	C196.323853,98.998161 196.412750,98.645714 196.739868,98.144035 
	C196.872620,98.333847 196.767151,98.672882 196.448318,99.181259 
z"/>
<path fill="#ECB94B" opacity="1.000000" stroke="none" 
	d="
M191.420685,111.150970 
	C191.295044,110.967560 191.387344,110.626999 191.708252,110.139099 
	C191.837448,110.325790 191.738037,110.659805 191.420685,111.150970 
z"/>
<path fill="#ECB94B" opacity="1.000000" stroke="none" 
	d="
M190.511063,113.238571 
	C190.377670,113.052414 190.455185,112.683060 190.781494,112.159470 
	C190.927521,112.355278 190.824753,112.705322 190.511063,113.238571 
z"/>
<path fill="#ECB94B" opacity="1.000000" stroke="none" 
	d="
M187.457581,122.193024 
	C187.321625,122.014465 187.395447,121.662346 187.695633,121.150391 
	C187.837112,121.333527 187.752243,121.676491 187.457581,122.193024 
z"/>
<path fill="#ECB94B" opacity="1.000000" stroke="none" 
	d="
M186.440552,125.171959 
	C186.305267,124.996185 186.379181,124.649742 186.672852,124.142181 
	C186.811661,124.321136 186.730698,124.661209 186.440552,125.171959 
z"/>
<path fill="#ECB94B" opacity="1.000000" stroke="none" 
	d="
M185.441925,128.173157 
	C185.308609,127.993935 185.387817,127.646980 185.692169,127.143295 
	C185.829697,127.326195 185.742081,127.665810 185.441925,128.173157 
z"/>
<path fill="#ECB94B" opacity="1.000000" stroke="none" 
	d="
M184.473999,131.204666 
	C184.332535,131.031296 184.393478,130.675323 184.675629,130.150772 
	C184.823380,130.328812 184.749908,130.675446 184.473999,131.204666 
z"/>
<path fill="#ECB94B" opacity="1.000000" stroke="none" 
	d="
M197.678879,96.136276 
	C197.943253,96.155128 197.985870,96.330559 198.077194,96.772598 
	C198.125885,97.039192 197.660583,97.191628 197.424164,97.253639 
	C197.277512,96.974716 197.367310,96.633781 197.678879,96.136276 
z"/>
<path fill="#ECB94B" opacity="1.000000" stroke="none" 
	d="
M203.374634,85.210510 
	C203.261185,84.921394 203.377396,84.588310 203.752579,84.377327 
	C204.023544,84.672043 204.035538,84.844650 204.047531,85.017258 
	C204.047531,85.017258 203.604309,85.166534 203.374634,85.210510 
z"/>
<path fill="#FDF4B7" opacity="1.000000" stroke="none" 
	d="
M204.285568,85.010803 
	C204.035538,84.844650 204.023544,84.672043 203.987549,84.240097 
	C203.963547,83.980766 203.970047,83.933479 204.188965,83.902740 
	C204.407867,83.872002 204.866653,83.759460 204.866653,83.759460 
	C204.901031,83.964890 204.935394,84.170319 204.984802,84.687790 
	C204.999847,84.999847 204.523605,85.004349 204.285568,85.010803 
z"/>
<path fill="#ECB94B" opacity="1.000000" stroke="none" 
	d="
M203.018890,86.792252 
	C203.025391,87.064568 202.563934,87.128021 202.333099,87.156036 
	C202.221939,86.872467 202.341599,86.560883 202.680771,86.118042 
	C202.937637,86.164513 202.975006,86.342216 203.018890,86.792252 
z"/>
<path fill="#ECB94B" opacity="1.000000" stroke="none" 
	d="
M201.647736,88.125702 
	C201.904083,88.150795 201.947723,88.324348 202.036102,88.762764 
	C202.080811,89.027618 201.613510,89.156151 201.375488,89.199341 
	C201.236633,88.919739 201.335831,88.596954 201.647736,88.125702 
z"/>
<path fill="#ECB94B" opacity="1.000000" stroke="none" 
	d="
M200.371689,91.097054 
	C200.255035,90.915390 200.358566,90.590759 200.683319,90.125984 
	C200.800308,90.308594 200.696091,90.631332 200.371689,91.097054 
z"/>
<path fill="#ECB94B" opacity="1.000000" stroke="none" 
	d="
M199.373749,93.105515 
	C199.258835,92.917770 199.371460,92.591438 199.711639,92.127983 
	C199.826569,92.316223 199.713943,92.641579 199.373749,93.105515 
z"/>
<path fill="#ECB94B" opacity="1.000000" stroke="none" 
	d="
M199.018188,94.791107 
	C199.024872,95.062927 198.571884,95.138000 198.345276,95.172142 
	C198.233887,94.889442 198.349106,94.572609 198.684998,94.120834 
	C198.940933,94.163696 198.976212,94.341492 199.018188,94.791107 
z"/>
<path fill="#FBAF1B" opacity="1.000000" stroke="none" 
	d="
M188.697128,91.675598 
	C188.431458,91.527977 188.166962,91.402641 187.464050,91.309799 
	C187.025635,91.342285 187.023834,91.382683 187.030807,91.401367 
	C187.379059,91.549622 187.720337,91.679207 188.332794,91.765968 
	C188.603958,91.723152 188.698318,91.697876 188.697128,91.675598 
z"/>
<path fill="#FBAF1B" opacity="1.000000" stroke="none" 
	d="
M189.979523,91.011841 
	C189.993927,91.007408 189.853409,90.918129 189.920441,90.934341 
	C189.987473,90.950546 190.024689,90.972458 190.024689,90.972458 
	C190.024689,90.972458 189.999863,91.000710 189.994293,91.018845 
	C189.988739,91.036987 189.965118,91.016281 189.979523,91.011841 
z"/>
<path fill="#ECB94B" opacity="1.000000" stroke="none" 
	d="
M201.701385,72.146469 
	C200.925919,73.990433 199.845062,75.970604 198.416351,77.996849 
	C199.177673,76.122841 200.286835,74.202766 201.701385,72.146469 
z"/>
<path fill="#FCEEA1" opacity="1.000000" stroke="none" 
	d="
M197.222504,79.075249 
	C197.222504,79.075249 197.073166,79.479271 196.745270,79.730156 
	C196.085342,80.122498 195.753296,80.263962 195.421265,80.405426 
	C195.276108,80.272667 195.130966,80.139915 194.761398,79.809685 
	C194.696289,78.967194 194.855606,78.322189 195.103180,77.353737 
	C195.718033,77.227692 196.244614,77.425087 196.933060,78.114639 
	C197.094925,78.606796 197.222504,79.075249 197.222504,79.075249 
z"/>
<path fill="#ECB94B" opacity="1.000000" stroke="none" 
	d="
M207.741425,63.162247 
	C207.593323,64.004997 207.144684,64.960632 206.354279,65.962494 
	C206.488647,65.097534 206.964767,64.186333 207.741425,63.162247 
z"/>
<path fill="#ECB94B" opacity="1.000000" stroke="none" 
	d="
M216.733566,51.153831 
	C216.568253,51.986160 216.107864,52.939690 215.298462,53.923805 
	C215.445786,53.061272 215.942139,52.168148 216.733566,51.153831 
z"/>
<path fill="#ECB94B" opacity="1.000000" stroke="none" 
	d="
M212.756653,56.182281 
	C212.592133,57.010384 212.131882,57.958935 211.326721,58.947113 
	C211.474854,58.092068 211.967880,57.197395 212.756653,56.182281 
z"/>
<path fill="#ECB94B" opacity="1.000000" stroke="none" 
	d="
M203.699127,69.125122 
	C203.562622,69.969460 203.131531,70.940605 202.356140,71.958908 
	C202.476059,71.088028 202.940292,70.169975 203.699127,69.125122 
z"/>
<path fill="#ECB94B" opacity="1.000000" stroke="none" 
	d="
M204.810760,67.226021 
	C204.884735,67.629143 204.698349,68.169945 204.254410,68.852699 
	C204.181366,68.451004 204.365891,67.907356 204.810760,67.226021 
z"/>
<path fill="#ECB94B" opacity="1.000000" stroke="none" 
	d="
M210.757874,59.080940 
	C210.938797,59.324512 210.780182,59.603352 210.297058,59.934235 
	C210.229034,59.757652 210.377640,59.467632 210.757874,59.080940 
z"/>
<path fill="#ECB94B" opacity="1.000000" stroke="none" 
	d="
M208.742813,62.031414 
	C208.815659,62.211388 208.661636,62.506432 208.279572,62.914299 
	C208.206345,62.733578 208.361145,62.440029 208.742813,62.031414 
z"/>
<path fill="#ECB94B" opacity="1.000000" stroke="none" 
	d="
M205.772949,66.097992 
	C205.945877,66.342346 205.782516,66.611641 205.304779,66.931282 
	C205.099335,66.683601 205.248093,66.397362 205.772949,66.097992 
z"/>
<path fill="#ECB94B" opacity="1.000000" stroke="none" 
	d="
M214.731232,54.055424 
	C214.797485,54.241039 214.631912,54.523369 214.235535,54.904716 
	C214.169632,54.719868 214.334503,54.436005 214.731232,54.055424 
z"/>
<path fill="#ECB94B" opacity="1.000000" stroke="none" 
	d="
M197.406769,78.951920 
	C197.222504,79.075249 197.094925,78.606796 197.082672,78.365189 
	C197.070435,78.123581 197.548447,78.050507 197.790131,78.060989 
	C197.967941,78.372231 197.821014,78.624603 197.406769,78.951920 
z"/>
<path fill="#ECB94B" opacity="1.000000" stroke="none" 
	d="
M213.770370,55.093788 
	C213.939087,55.339668 213.770706,55.610107 213.281464,55.924728 
	C213.090073,55.676716 213.247650,55.393196 213.770370,55.093788 
z"/>
<path fill="#ECB94B" opacity="1.000000" stroke="none" 
	d="
M217.775055,50.076748 
	C217.944244,50.328114 217.769547,50.603775 217.260300,50.914886 
	C217.202469,50.735859 217.370941,50.452763 217.775055,50.076748 
z"/>
<path fill="#F8B01F" opacity="1.000000" stroke="none" 
	d="
M179.173279,105.845840 
	C179.192963,105.730438 179.189819,105.408470 179.200989,105.324150 
	C179.212173,105.239830 179.226028,105.198380 179.237640,105.191391 
	C179.249237,105.184402 179.393784,105.499428 179.402161,105.670929 
	C179.410538,105.842422 179.153595,105.961243 179.173279,105.845840 
z"/>
<path fill="#ECB94B" opacity="1.000000" stroke="none" 
	d="
M221.262436,55.952545 
	C221.198563,55.778820 221.361069,55.494785 221.746063,55.096123 
	C221.808640,55.268410 221.648743,55.555321 221.262436,55.952545 
z"/>
<path fill="#ECB94B" opacity="1.000000" stroke="none" 
	d="
M218.297867,59.987930 
	C218.230789,59.812923 218.387985,59.518673 218.773895,59.109238 
	C218.842453,59.285595 218.682297,59.577137 218.297867,59.987930 
z"/>
<path fill="#ECB94B" opacity="1.000000" stroke="none" 
	d="
M212.243423,69.805603 
	C212.424500,69.040497 212.894989,68.147507 213.647522,67.113411 
	C213.464005,67.874107 212.998413,68.775909 212.243423,69.805603 
z"/>
<path fill="#ECB94B" opacity="1.000000" stroke="none" 
	d="
M214.179367,66.916611 
	C214.150330,66.384384 214.347763,65.843163 214.808075,65.162140 
	C215.025040,65.416512 214.979111,65.810684 214.888397,66.497498 
	C214.843613,66.790131 214.405823,66.907616 214.179367,66.916611 
z"/>
<path fill="#ECB94B" opacity="1.000000" stroke="none" 
	d="
M210.230194,72.823448 
	C210.162231,72.409691 210.360535,71.861870 210.832001,71.187408 
	C210.902267,71.603638 210.699356,72.146515 210.230194,72.823448 
z"/>
<path fill="#ECB94B" opacity="1.000000" stroke="none" 
	d="
M209.187561,74.764664 
	C209.110001,74.370041 209.293381,73.837624 209.713837,73.141907 
	C209.783447,73.528038 209.615982,74.077461 209.187561,74.764664 
z"/>
<path fill="#ECB94B" opacity="1.000000" stroke="none" 
	d="
M206.292999,79.955780 
	C206.206467,79.490211 206.348511,78.914879 206.742889,78.166786 
	C207.006775,78.165291 207.018295,78.336548 207.066620,78.762756 
	C206.909500,79.293816 206.715546,79.569916 206.292999,79.955780 
z"/>
<path fill="#ECB94B" opacity="1.000000" stroke="none" 
	d="
M211.305939,70.981979 
	C211.084000,70.732574 211.224640,70.440292 211.714935,70.091583 
	C211.800873,70.273064 211.668854,70.574379 211.305939,70.981979 
z"/>
<path fill="#ECB94B" opacity="1.000000" stroke="none" 
	d="
M208.238358,75.923721 
	C208.069199,75.691956 208.228867,75.417862 208.692368,75.076530 
	C208.756348,75.243576 208.613342,75.534271 208.238358,75.923721 
z"/>
<path fill="#ECB94B" opacity="1.000000" stroke="none" 
	d="
M207.213257,77.902664 
	C207.035095,77.695534 207.163406,77.437294 207.552704,77.090797 
	C207.831314,77.312492 207.733307,77.595497 207.213257,77.902664 
z"/>
<path fill="#ECB94B" opacity="1.000000" stroke="none" 
	d="
M205.259308,81.848389 
	C205.177826,81.438004 205.356461,80.877747 205.806335,80.178261 
	C205.891510,80.592194 205.705475,81.145348 205.259308,81.848389 
z"/>
<path fill="#ECB94B" opacity="1.000000" stroke="none" 
	d="
M204.905396,83.467300 
	C204.866653,83.759460 204.407867,83.872002 204.171753,83.885895 
	C204.122086,83.364594 204.308517,82.829399 204.746643,82.147018 
	C204.980255,82.391609 204.962204,82.783371 204.905396,83.467300 
z"/>
<path fill="#ECB94B" opacity="1.000000" stroke="none" 
	d="
M216.356628,63.059372 
	C216.274673,62.878250 216.414230,62.561634 216.794220,62.128471 
	C216.882477,62.315914 216.730316,62.619896 216.356628,63.059372 
z"/>
<path fill="#ECB94B" opacity="1.000000" stroke="none" 
	d="
M193.691101,85.101349 
	C193.242081,86.602112 192.491653,88.254623 191.395599,89.966782 
	C191.829880,88.435326 192.609787,86.844208 193.691101,85.101349 
z"/>
<path fill="#ECB94B" opacity="1.000000" stroke="none" 
	d="
M195.317993,80.718872 
	C195.753296,80.263962 196.085342,80.122498 196.686996,79.937500 
	C196.549591,80.897736 196.142563,81.901520 195.387695,82.962845 
	C195.098145,82.357681 195.156433,81.695000 195.317993,80.718872 
z"/>
<path fill="#ECB94B" opacity="1.000000" stroke="none" 
	d="
M194.794342,83.128860 
	C194.977722,83.343819 194.849152,83.606110 194.454102,83.956421 
	C194.194656,83.737549 194.292908,83.448135 194.794342,83.128860 
z"/>
<path fill="#ECB94B" opacity="1.000000" stroke="none" 
	d="
M190.259369,90.906792 
	C190.024689,90.972458 189.987473,90.950546 189.968109,90.951187 
	C190.088272,90.754883 190.227783,90.557953 190.693726,90.204727 
	C190.962250,90.390656 190.786880,90.654884 190.259369,90.906792 
z"/>
</svg>